<mxfile host="app.diagrams.net" modified="2021-03-15T01:57:22.121Z" agent="5.0 (Windows NT 10.0; Win64; x64) AppleWebKit/537.36 (KHTML, like Gecko) Chrome/89.0.4389.82 Safari/537.36" etag="Wc11mAnyGYgnugSsBigm" version="14.4.2" type="github">
  <diagram id="nhFdNRNJwITIlTAktCPm" name="第 1 页">
    <mxGraphModel dx="1072" dy="584" grid="1" gridSize="10" guides="1" tooltips="1" connect="1" arrows="1" fold="1" page="1" pageScale="1" pageWidth="827" pageHeight="1169" math="0" shadow="0">
      <root>
        <mxCell id="0" />
        <mxCell id="1" parent="0" />
        <mxCell id="d5UvT95ruAMld8Yj-TKM-1" value="" style="rounded=0;whiteSpace=wrap;html=1;" vertex="1" parent="1">
          <mxGeometry x="73" y="70" width="660" height="460" as="geometry" />
        </mxCell>
        <mxCell id="d5UvT95ruAMld8Yj-TKM-2" value="课程监控统计系统（Banner）" style="rounded=0;whiteSpace=wrap;html=1;fillColor=#ffe6cc;strokeColor=#d79b00;align=left;" vertex="1" parent="1">
          <mxGeometry x="73" y="70" width="660" height="40" as="geometry" />
        </mxCell>
        <mxCell id="d5UvT95ruAMld8Yj-TKM-3" value="" style="rounded=0;whiteSpace=wrap;html=1;" vertex="1" parent="1">
          <mxGeometry x="73" y="110" width="80" height="420" as="geometry" />
        </mxCell>
        <mxCell id="d5UvT95ruAMld8Yj-TKM-4" value="首页" style="rounded=0;whiteSpace=wrap;html=1;fillColor=#ffcd28;strokeColor=#d79b00;gradientColor=#ffa500;" vertex="1" parent="1">
          <mxGeometry x="73" y="110" width="80" height="30" as="geometry" />
        </mxCell>
        <mxCell id="d5UvT95ruAMld8Yj-TKM-5" value="IT互联网" style="rounded=0;whiteSpace=wrap;html=1;fillColor=#dae8fc;strokeColor=#6c8ebf;" vertex="1" parent="1">
          <mxGeometry x="73" y="140" width="80" height="30" as="geometry" />
        </mxCell>
        <mxCell id="d5UvT95ruAMld8Yj-TKM-6" value="设计创作" style="rounded=0;whiteSpace=wrap;html=1;gradientColor=#b3b3b3;fillColor=#f5f5f5;strokeColor=#666666;" vertex="1" parent="1">
          <mxGeometry x="73" y="170" width="80" height="30" as="geometry" />
        </mxCell>
        <mxCell id="d5UvT95ruAMld8Yj-TKM-7" value="电商营销" style="rounded=0;whiteSpace=wrap;html=1;gradientColor=#b3b3b3;fillColor=#f5f5f5;strokeColor=#666666;" vertex="1" parent="1">
          <mxGeometry x="73" y="200" width="80" height="30" as="geometry" />
        </mxCell>
        <mxCell id="d5UvT95ruAMld8Yj-TKM-8" value="职业考证" style="rounded=0;whiteSpace=wrap;html=1;gradientColor=#b3b3b3;fillColor=#f5f5f5;strokeColor=#666666;" vertex="1" parent="1">
          <mxGeometry x="73" y="230" width="80" height="30" as="geometry" />
        </mxCell>
        <mxCell id="d5UvT95ruAMld8Yj-TKM-9" value="升学考研" style="rounded=0;whiteSpace=wrap;html=1;gradientColor=#b3b3b3;fillColor=#f5f5f5;strokeColor=#666666;" vertex="1" parent="1">
          <mxGeometry x="73" y="260" width="80" height="30" as="geometry" />
        </mxCell>
        <mxCell id="d5UvT95ruAMld8Yj-TKM-10" value="兴趣生活" style="rounded=0;whiteSpace=wrap;html=1;gradientColor=#b3b3b3;fillColor=#f5f5f5;strokeColor=#666666;" vertex="1" parent="1">
          <mxGeometry x="73" y="290" width="80" height="30" as="geometry" />
        </mxCell>
        <mxCell id="d5UvT95ruAMld8Yj-TKM-11" value="语言留学" style="rounded=0;whiteSpace=wrap;html=1;gradientColor=#b3b3b3;fillColor=#f5f5f5;strokeColor=#666666;" vertex="1" parent="1">
          <mxGeometry x="73" y="320" width="80" height="30" as="geometry" />
        </mxCell>
        <mxCell id="d5UvT95ruAMld8Yj-TKM-18" value="&lt;font style=&quot;font-size: 22px&quot;&gt;&lt;b&gt;词云&lt;/b&gt;（按照购买数/浏览数/转化率分别生成）&lt;br&gt;全站所有的课程统一生成&lt;br&gt;词云采用highcharts.js生成&lt;br&gt;+&lt;br&gt;&lt;b&gt;统计排行榜&lt;/b&gt;（可分别按照购买数/浏览数/转化率排序）&lt;br&gt;&lt;br&gt;（购买数/浏览数/转化率采用MySQL存储过程+自定义函数生成随机数据）&lt;br&gt;&lt;br&gt;&lt;/font&gt;" style="rounded=0;whiteSpace=wrap;html=1;gradientColor=#97d077;fillColor=#d5e8d4;strokeColor=#82b366;" vertex="1" parent="1">
          <mxGeometry x="153" y="110" width="580" height="420" as="geometry" />
        </mxCell>
        <mxCell id="d5UvT95ruAMld8Yj-TKM-20" value="" style="rounded=0;whiteSpace=wrap;html=1;" vertex="1" parent="1">
          <mxGeometry x="73" y="550" width="660" height="460" as="geometry" />
        </mxCell>
        <mxCell id="d5UvT95ruAMld8Yj-TKM-21" value="课程监控统计系统（Banner）" style="rounded=0;whiteSpace=wrap;html=1;fillColor=#ffe6cc;strokeColor=#d79b00;align=left;" vertex="1" parent="1">
          <mxGeometry x="73" y="550" width="660" height="40" as="geometry" />
        </mxCell>
        <mxCell id="d5UvT95ruAMld8Yj-TKM-22" value="" style="rounded=0;whiteSpace=wrap;html=1;" vertex="1" parent="1">
          <mxGeometry x="73" y="590" width="80" height="420" as="geometry" />
        </mxCell>
        <mxCell id="d5UvT95ruAMld8Yj-TKM-24" value="首页" style="rounded=0;whiteSpace=wrap;html=1;gradientColor=#7ea6e0;fillColor=#dae8fc;strokeColor=#6c8ebf;" vertex="1" parent="1">
          <mxGeometry x="73" y="590" width="80" height="30" as="geometry" />
        </mxCell>
        <mxCell id="d5UvT95ruAMld8Yj-TKM-25" value="IT互联网" style="rounded=0;whiteSpace=wrap;html=1;gradientColor=#ffa500;fillColor=#ffcd28;strokeColor=#d79b00;" vertex="1" parent="1">
          <mxGeometry x="73" y="620" width="80" height="30" as="geometry" />
        </mxCell>
        <mxCell id="d5UvT95ruAMld8Yj-TKM-51" value="&lt;font style=&quot;font-size: 22px&quot;&gt;默认未选择任何模块，&lt;br&gt;会生成&lt;font color=&quot;#ff6666&quot;&gt;IT 互联网&lt;/font&gt;整个范围的课程统计信息&lt;br&gt;词云图&lt;br&gt;+&lt;br&gt;统计排行榜&lt;/font&gt;" style="rounded=0;whiteSpace=wrap;html=1;gradientColor=#97d077;fillColor=#d5e8d4;strokeColor=#82b366;" vertex="1" parent="1">
          <mxGeometry x="153" y="590" width="580" height="420" as="geometry" />
        </mxCell>
        <mxCell id="d5UvT95ruAMld8Yj-TKM-52" value="设计创作" style="rounded=0;whiteSpace=wrap;html=1;gradientColor=#b3b3b3;fillColor=#f5f5f5;strokeColor=#666666;" vertex="1" parent="1">
          <mxGeometry x="73" y="650" width="80" height="30" as="geometry" />
        </mxCell>
        <mxCell id="d5UvT95ruAMld8Yj-TKM-53" value="电商营销" style="rounded=0;whiteSpace=wrap;html=1;gradientColor=#b3b3b3;fillColor=#f5f5f5;strokeColor=#666666;" vertex="1" parent="1">
          <mxGeometry x="73" y="680" width="80" height="30" as="geometry" />
        </mxCell>
        <mxCell id="d5UvT95ruAMld8Yj-TKM-54" value="职业考证" style="rounded=0;whiteSpace=wrap;html=1;gradientColor=#b3b3b3;fillColor=#f5f5f5;strokeColor=#666666;" vertex="1" parent="1">
          <mxGeometry x="73" y="710" width="80" height="30" as="geometry" />
        </mxCell>
        <mxCell id="d5UvT95ruAMld8Yj-TKM-55" value="升学考研" style="rounded=0;whiteSpace=wrap;html=1;gradientColor=#b3b3b3;fillColor=#f5f5f5;strokeColor=#666666;" vertex="1" parent="1">
          <mxGeometry x="73" y="740" width="80" height="30" as="geometry" />
        </mxCell>
        <mxCell id="d5UvT95ruAMld8Yj-TKM-56" value="兴趣生活" style="rounded=0;whiteSpace=wrap;html=1;gradientColor=#b3b3b3;fillColor=#f5f5f5;strokeColor=#666666;" vertex="1" parent="1">
          <mxGeometry x="73" y="770" width="80" height="30" as="geometry" />
        </mxCell>
        <mxCell id="d5UvT95ruAMld8Yj-TKM-57" value="语言留学" style="rounded=0;whiteSpace=wrap;html=1;gradientColor=#b3b3b3;fillColor=#f5f5f5;strokeColor=#666666;" vertex="1" parent="1">
          <mxGeometry x="73" y="800" width="80" height="30" as="geometry" />
        </mxCell>
        <mxCell id="d5UvT95ruAMld8Yj-TKM-73" style="edgeStyle=orthogonalEdgeStyle;curved=1;rounded=0;orthogonalLoop=1;jettySize=auto;html=1;exitX=1;exitY=0.5;exitDx=0;exitDy=0;entryX=0;entryY=0.5;entryDx=0;entryDy=0;" edge="1" parent="1" source="d5UvT95ruAMld8Yj-TKM-59" target="d5UvT95ruAMld8Yj-TKM-39">
          <mxGeometry relative="1" as="geometry" />
        </mxCell>
        <mxCell id="d5UvT95ruAMld8Yj-TKM-59" value="未选中一级菜单" style="rounded=0;whiteSpace=wrap;html=1;" vertex="1" parent="1">
          <mxGeometry x="243" y="603.75" width="100" height="35" as="geometry" />
        </mxCell>
        <mxCell id="d5UvT95ruAMld8Yj-TKM-39" value="互联网产品" style="rounded=0;whiteSpace=wrap;html=1;" vertex="1" parent="1">
          <mxGeometry x="740" y="540" width="80" height="30" as="geometry" />
        </mxCell>
        <mxCell id="d5UvT95ruAMld8Yj-TKM-40" value="Java开发" style="rounded=0;whiteSpace=wrap;html=1;" vertex="1" parent="1">
          <mxGeometry x="740" y="570" width="80" height="30" as="geometry" />
        </mxCell>
        <mxCell id="d5UvT95ruAMld8Yj-TKM-41" value="后台开发" style="rounded=0;whiteSpace=wrap;html=1;" vertex="1" parent="1">
          <mxGeometry x="740" y="600" width="80" height="30" as="geometry" />
        </mxCell>
        <mxCell id="d5UvT95ruAMld8Yj-TKM-42" value="前端开发" style="rounded=0;whiteSpace=wrap;html=1;" vertex="1" parent="1">
          <mxGeometry x="740" y="630" width="80" height="30" as="geometry" />
        </mxCell>
        <mxCell id="d5UvT95ruAMld8Yj-TKM-43" value="移动开发" style="rounded=0;whiteSpace=wrap;html=1;" vertex="1" parent="1">
          <mxGeometry x="740" y="660" width="80" height="30" as="geometry" />
        </mxCell>
        <mxCell id="d5UvT95ruAMld8Yj-TKM-44" value="大数据与AI" style="rounded=0;whiteSpace=wrap;html=1;" vertex="1" parent="1">
          <mxGeometry x="740" y="690" width="80" height="30" as="geometry" />
        </mxCell>
        <mxCell id="d5UvT95ruAMld8Yj-TKM-45" value="软件测试" style="rounded=0;whiteSpace=wrap;html=1;" vertex="1" parent="1">
          <mxGeometry x="740" y="720" width="80" height="30" as="geometry" />
        </mxCell>
        <mxCell id="d5UvT95ruAMld8Yj-TKM-46" value="运维" style="rounded=0;whiteSpace=wrap;html=1;" vertex="1" parent="1">
          <mxGeometry x="740" y="750" width="80" height="30" as="geometry" />
        </mxCell>
        <mxCell id="d5UvT95ruAMld8Yj-TKM-47" value="游戏开发" style="rounded=0;whiteSpace=wrap;html=1;" vertex="1" parent="1">
          <mxGeometry x="740" y="780" width="80" height="30" as="geometry" />
        </mxCell>
        <mxCell id="d5UvT95ruAMld8Yj-TKM-48" value="认证考试" style="rounded=0;whiteSpace=wrap;html=1;" vertex="1" parent="1">
          <mxGeometry x="740" y="810" width="80" height="30" as="geometry" />
        </mxCell>
        <mxCell id="d5UvT95ruAMld8Yj-TKM-49" value="计算机通识课" style="rounded=0;whiteSpace=wrap;html=1;" vertex="1" parent="1">
          <mxGeometry x="740" y="840" width="80" height="30" as="geometry" />
        </mxCell>
        <mxCell id="d5UvT95ruAMld8Yj-TKM-50" value="硬件开发" style="rounded=0;whiteSpace=wrap;html=1;" vertex="1" parent="1">
          <mxGeometry x="740" y="870" width="80" height="30" as="geometry" />
        </mxCell>
        <mxCell id="d5UvT95ruAMld8Yj-TKM-72" value="一级菜单" style="text;html=1;strokeColor=none;fillColor=none;align=center;verticalAlign=middle;whiteSpace=wrap;rounded=0;" vertex="1" parent="1">
          <mxGeometry x="163" y="614.38" width="70" height="13.75" as="geometry" />
        </mxCell>
        <mxCell id="d5UvT95ruAMld8Yj-TKM-75" value="&lt;font style=&quot;font-size: 16px&quot;&gt;近一周/近一月/近一年&lt;/font&gt;" style="rounded=0;whiteSpace=wrap;html=1;gradientColor=#ffa500;fillColor=#ffcd28;strokeColor=#d79b00;" vertex="1" parent="1">
          <mxGeometry x="543" y="120" width="180" height="40" as="geometry" />
        </mxCell>
        <mxCell id="d5UvT95ruAMld8Yj-TKM-76" value="&lt;font style=&quot;font-size: 16px&quot;&gt;近一周/近一月/近一年&lt;/font&gt;" style="rounded=0;whiteSpace=wrap;html=1;gradientColor=#ffa500;fillColor=#ffcd28;strokeColor=#d79b00;" vertex="1" parent="1">
          <mxGeometry x="543" y="620" width="180" height="40" as="geometry" />
        </mxCell>
        <mxCell id="d5UvT95ruAMld8Yj-TKM-77" value="" style="rounded=0;whiteSpace=wrap;html=1;" vertex="1" parent="1">
          <mxGeometry x="73" y="1050" width="660" height="460" as="geometry" />
        </mxCell>
        <mxCell id="d5UvT95ruAMld8Yj-TKM-78" value="课程监控统计系统（Banner）" style="rounded=0;whiteSpace=wrap;html=1;fillColor=#ffe6cc;strokeColor=#d79b00;align=left;" vertex="1" parent="1">
          <mxGeometry x="73" y="1050" width="660" height="40" as="geometry" />
        </mxCell>
        <mxCell id="d5UvT95ruAMld8Yj-TKM-79" value="" style="rounded=0;whiteSpace=wrap;html=1;" vertex="1" parent="1">
          <mxGeometry x="73" y="1090" width="80" height="420" as="geometry" />
        </mxCell>
        <mxCell id="d5UvT95ruAMld8Yj-TKM-80" value="首页" style="rounded=0;whiteSpace=wrap;html=1;gradientColor=#7ea6e0;fillColor=#dae8fc;strokeColor=#6c8ebf;" vertex="1" parent="1">
          <mxGeometry x="73" y="1090" width="80" height="30" as="geometry" />
        </mxCell>
        <mxCell id="d5UvT95ruAMld8Yj-TKM-81" value="IT互联网" style="rounded=0;whiteSpace=wrap;html=1;gradientColor=#ffa500;fillColor=#ffcd28;strokeColor=#d79b00;" vertex="1" parent="1">
          <mxGeometry x="73" y="1120" width="80" height="30" as="geometry" />
        </mxCell>
        <mxCell id="d5UvT95ruAMld8Yj-TKM-82" value="&lt;font style=&quot;font-size: 22px&quot;&gt;生成折线图，选取该模块下的&lt;font color=&quot;#ff6666&quot;&gt;前三子项&lt;/font&gt;&lt;br&gt;&lt;/font&gt;" style="rounded=0;whiteSpace=wrap;html=1;gradientColor=#97d077;fillColor=#d5e8d4;strokeColor=#82b366;" vertex="1" parent="1">
          <mxGeometry x="153" y="1090" width="580" height="420" as="geometry" />
        </mxCell>
        <mxCell id="d5UvT95ruAMld8Yj-TKM-83" value="设计创作" style="rounded=0;whiteSpace=wrap;html=1;gradientColor=#b3b3b3;fillColor=#f5f5f5;strokeColor=#666666;" vertex="1" parent="1">
          <mxGeometry x="73" y="1150" width="80" height="30" as="geometry" />
        </mxCell>
        <mxCell id="d5UvT95ruAMld8Yj-TKM-84" value="电商营销" style="rounded=0;whiteSpace=wrap;html=1;gradientColor=#b3b3b3;fillColor=#f5f5f5;strokeColor=#666666;" vertex="1" parent="1">
          <mxGeometry x="73" y="1180" width="80" height="30" as="geometry" />
        </mxCell>
        <mxCell id="d5UvT95ruAMld8Yj-TKM-85" value="职业考证" style="rounded=0;whiteSpace=wrap;html=1;gradientColor=#b3b3b3;fillColor=#f5f5f5;strokeColor=#666666;" vertex="1" parent="1">
          <mxGeometry x="73" y="1210" width="80" height="30" as="geometry" />
        </mxCell>
        <mxCell id="d5UvT95ruAMld8Yj-TKM-86" value="升学考研" style="rounded=0;whiteSpace=wrap;html=1;gradientColor=#b3b3b3;fillColor=#f5f5f5;strokeColor=#666666;" vertex="1" parent="1">
          <mxGeometry x="73" y="1240" width="80" height="30" as="geometry" />
        </mxCell>
        <mxCell id="d5UvT95ruAMld8Yj-TKM-87" value="兴趣生活" style="rounded=0;whiteSpace=wrap;html=1;gradientColor=#b3b3b3;fillColor=#f5f5f5;strokeColor=#666666;" vertex="1" parent="1">
          <mxGeometry x="73" y="1270" width="80" height="30" as="geometry" />
        </mxCell>
        <mxCell id="d5UvT95ruAMld8Yj-TKM-88" value="语言留学" style="rounded=0;whiteSpace=wrap;html=1;gradientColor=#b3b3b3;fillColor=#f5f5f5;strokeColor=#666666;" vertex="1" parent="1">
          <mxGeometry x="73" y="1300" width="80" height="30" as="geometry" />
        </mxCell>
        <mxCell id="d5UvT95ruAMld8Yj-TKM-90" value="互联网产品" style="rounded=0;whiteSpace=wrap;html=1;" vertex="1" parent="1">
          <mxGeometry x="233" y="1108.13" width="90" height="26.25" as="geometry" />
        </mxCell>
        <mxCell id="d5UvT95ruAMld8Yj-TKM-103" value="一级菜单" style="text;html=1;strokeColor=none;fillColor=none;align=center;verticalAlign=middle;whiteSpace=wrap;rounded=0;" vertex="1" parent="1">
          <mxGeometry x="163" y="1114.38" width="70" height="13.75" as="geometry" />
        </mxCell>
        <mxCell id="d5UvT95ruAMld8Yj-TKM-104" value="&lt;font style=&quot;font-size: 16px&quot;&gt;近一周/近一月/近一年&lt;/font&gt;" style="rounded=0;whiteSpace=wrap;html=1;gradientColor=#ffa500;fillColor=#ffcd28;strokeColor=#d79b00;" vertex="1" parent="1">
          <mxGeometry x="543" y="1120" width="180" height="40" as="geometry" />
        </mxCell>
        <mxCell id="d5UvT95ruAMld8Yj-TKM-109" value="&lt;span style=&quot;font-size: 22px&quot;&gt;购买数/浏览数/转化率&lt;/span&gt;" style="rounded=0;whiteSpace=wrap;html=1;gradientColor=#ffa500;fillColor=#ffcd28;strokeColor=#d79b00;" vertex="1" parent="1">
          <mxGeometry x="473" y="1169" width="250" height="35" as="geometry" />
        </mxCell>
        <mxCell id="d5UvT95ruAMld8Yj-TKM-110" value="&lt;span style=&quot;font-size: 22px&quot;&gt;购买数/浏览数/转化率&lt;/span&gt;" style="rounded=0;whiteSpace=wrap;html=1;gradientColor=#ffa500;fillColor=#ffcd28;strokeColor=#d79b00;" vertex="1" parent="1">
          <mxGeometry x="473" y="670" width="250" height="35" as="geometry" />
        </mxCell>
      </root>
    </mxGraphModel>
  </diagram>
</mxfile>
